<svg width="32" height="32" viewBox="0 0 32 32" fill="none" xmlns="http://www.w3.org/2000/svg">
<path d="M28.8174 23.7208C29.5847 22.2865 29.9905 20.6868 29.9998 19.0602C30.009 17.4337 29.6215 15.8294 28.8706 14.3864C28.1198 12.9435 27.0284 11.7055 25.691 10.7796C24.3536 9.8538 22.8106 9.26813 21.1957 9.07337C20.6651 7.83198 19.8887 6.71087 18.9132 5.77761C17.9378 4.84435 16.7834 4.11826 15.5198 3.64311C14.2562 3.16795 12.9094 2.95358 11.5607 3.01289C10.212 3.07221 8.88929 3.40399 7.67226 3.98825C6.45522 4.5725 5.36909 5.39713 4.47932 6.41243C3.58954 7.42772 2.91456 8.61267 2.49504 9.89584C2.07552 11.179 1.92016 12.5338 2.03832 13.8787C2.15647 15.2235 2.54571 16.5305 3.18255 17.7208L2.40948 20.4271C2.32369 20.7271 2.31972 21.0447 2.39797 21.3468C2.47622 21.6489 2.63384 21.9246 2.8545 22.1453C3.07516 22.366 3.35083 22.5237 3.65294 22.602C3.95504 22.6803 4.2726 22.6764 4.57269 22.5907L7.27923 21.8175C8.37446 22.4037 9.56952 22.7803 10.803 22.9279C11.3483 24.2035 12.1529 25.3518 13.1657 26.2997C14.1785 27.2477 15.3774 27.9747 16.6863 28.4345C17.9951 28.8943 19.3853 29.0769 20.7685 28.9706C22.1516 28.8644 23.4976 28.4717 24.7209 27.8174L27.4273 28.5907C27.7274 28.6764 28.0449 28.6803 28.347 28.602C28.6491 28.5237 28.9248 28.3661 29.1454 28.1454C29.3661 27.9247 29.5237 27.6491 29.602 27.347C29.6803 27.0449 29.6764 26.7273 29.5906 26.4273L28.8174 23.7208ZM26.8815 23.0823C26.8119 23.1995 26.7669 23.3296 26.7493 23.4647C26.7318 23.5999 26.742 23.7372 26.7795 23.8682L27.544 26.544L24.8682 25.7795C24.7372 25.7421 24.5999 25.7319 24.4648 25.7494C24.3297 25.767 24.1996 25.812 24.0825 25.8816C23.1673 26.424 22.1531 26.7785 21.0993 26.9244C20.0455 27.0703 18.9732 27.0046 17.9451 26.7313C16.9169 26.458 15.9536 25.9824 15.1114 25.3324C14.2692 24.6825 13.565 23.8711 13.04 22.9458C14.4097 22.8041 15.7354 22.3806 16.9337 21.702C18.132 21.0234 19.177 20.1044 20.0031 19.0026C20.8292 17.9008 21.4185 16.6402 21.7341 15.2997C22.0497 13.9593 22.0847 12.5681 21.8369 11.2135C23.0587 11.5021 24.1955 12.0741 25.1553 12.8833C26.1152 13.6925 26.8712 14.7161 27.3623 15.8715C27.8534 17.0269 28.0657 18.2816 27.9822 19.5343C27.8987 20.7869 27.5216 22.0024 26.8815 23.0823Z" fill="#007AFF"/>
</svg>
