<svg width="33" height="32" viewBox="0 0 33 32" fill="none" xmlns="http://www.w3.org/2000/svg">
<path fill-rule="evenodd" clip-rule="evenodd" d="M20.5 8C19.7044 8 18.9413 8.31607 18.3787 8.87868C17.8161 9.44129 17.5 10.2044 17.5 11C17.5 11.5523 17.0523 12 16.5 12C15.9477 12 15.5 11.5523 15.5 11C15.5 9.67392 16.0268 8.40215 16.9645 7.46447C17.9021 6.52678 19.1739 6 20.5 6H28.5C29.0304 6 29.5391 6.21071 29.9142 6.58579C30.2893 6.96086 30.5 7.46957 30.5 8V24C30.5 24.5304 30.2893 25.0391 29.9142 25.4142C29.5391 25.7893 29.0304 26 28.5 26H20.5C19.7044 26 18.9413 26.3161 18.3787 26.8787C17.8161 27.4413 17.5 28.2044 17.5 29C17.5 29.5523 17.0523 30 16.5 30C15.9477 30 15.5 29.5523 15.5 29C15.5 27.6739 16.0268 26.4021 16.9645 25.4645C17.9021 24.5268 19.1739 24 20.5 24H28.5L28.5 8L20.5 8Z" fill="white"/>
<path fill-rule="evenodd" clip-rule="evenodd" d="M3.08579 6.58579C3.46086 6.21071 3.96957 6 4.5 6H12.5C13.8261 6 15.0979 6.52678 16.0355 7.46447C16.9732 8.40215 17.5 9.67392 17.5 11V29C17.5 29.5523 17.0523 30 16.5 30C15.9477 30 15.5 29.5523 15.5 29C15.5 28.2044 15.1839 27.4413 14.6213 26.8787C14.0587 26.3161 13.2956 26 12.5 26H4.5C3.96957 26 3.46086 25.7893 3.08579 25.4142C2.71071 25.0391 2.5 24.5304 2.5 24V8C2.5 7.46957 2.71071 6.96086 3.08579 6.58579ZM15.5 25V11C15.5 10.2044 15.1839 9.44129 14.6213 8.87868C14.0587 8.31607 13.2956 8 12.5 8L4.5 8V24H12.5C13.5881 24 14.6396 24.3547 15.5 25Z" fill="white"/>
</svg>
