<svg width="102" height="109" viewBox="0 0 102 109" fill="none" xmlns="http://www.w3.org/2000/svg">
<rect x="17.6667" y="6.66666" width="66.6667" height="66.6667" rx="18" fill="url(#paint0_linear_298_16609)"/>
<path fill-rule="evenodd" clip-rule="evenodd" d="M73.1459 48.8407C74.1371 47.1084 74.7037 45.1018 74.7037 42.963C74.7037 36.4174 69.3975 31.1111 62.8519 31.1111C56.3063 31.1111 51 36.4174 51 42.963C51 49.5086 56.3063 54.8148 62.8519 54.8148C65.8435 54.8148 68.5762 53.7064 70.6618 51.8778L74.3046 52.7524L73.1459 48.8407Z" fill="white"/>
<path fill-rule="evenodd" clip-rule="evenodd" d="M54.8712 51.7253C58.3741 49.0157 60.6296 44.7712 60.6296 40C60.6296 37.0608 59.7737 34.3215 58.2975 32.0178C54.0123 33.8029 51 38.0311 51 42.963C51 46.4346 52.4927 49.5576 54.8712 51.7253Z" fill="#E6F2FF"/>
<path fill-rule="evenodd" clip-rule="evenodd" d="M42.1111 54.8148C50.2931 54.8148 56.9259 48.182 56.9259 40C56.9259 31.818 50.2931 25.1852 42.1111 25.1852C33.9291 25.1852 27.2963 31.818 27.2963 40C27.2963 42.6433 27.9885 45.1248 29.2016 47.2733L27.579 52.7526L32.7762 51.5044C35.324 53.5743 38.5727 54.8148 42.1111 54.8148Z" fill="#F8F8F8"/>
<g clip-path="url(#clip0_298_16609)">
<path d="M101.196 99.9163C101.196 100.431 100.99 100.915 100.579 101.367C100.168 101.8 99.7153 102.016 99.2219 102.016C98.6463 102.016 98.1221 101.861 97.6492 101.553C97.1764 101.223 96.94 100.812 96.94 100.318C96.94 99.5355 97.0839 98.9592 97.3717 98.5887C97.6801 98.2182 98.1323 98.033 98.7285 98.033C99.4275 98.033 100.013 98.2079 100.486 98.5578C100.959 98.8872 101.196 99.34 101.196 99.9163Z" fill="#131313"/>
<path d="M90.4808 100.379C90.4397 100.729 90.2957 101.038 90.0491 101.306C89.8024 101.573 89.4837 101.707 89.0931 101.707C88.4764 101.707 88.0241 101.594 87.7363 101.367C87.4485 101.12 87.3045 100.678 87.3045 100.04C87.3045 99.1753 87.3559 98.2285 87.4587 97.1993C87.541 96.0055 87.5821 95.0895 87.5821 94.4514C87.5821 94.1221 87.5615 93.7104 87.5204 93.2164C87.4793 92.7636 87.4587 92.424 87.4587 92.1976C87.3971 91.8477 87.2531 91.5698 87.027 91.3639C86.8214 91.1581 86.4925 90.9832 86.0402 90.8391C85.8552 90.7567 85.701 90.6229 85.5777 90.4377C85.4543 90.2319 85.3926 90.0466 85.3926 89.8819C85.3926 89.4085 85.5777 89.0483 85.9477 88.8013C86.3177 88.5543 86.77 88.4308 87.3045 88.4308C87.9007 88.4308 88.4147 88.6367 88.8464 89.0483C89.2781 89.46 89.6071 89.9746 89.8332 90.5921C90.306 89.9128 90.8817 89.3674 91.5601 88.9557C92.2591 88.544 92.9375 88.3382 93.5953 88.3382C94.4382 88.3382 95.1475 88.4823 95.7231 88.7704C96.3193 89.038 96.6174 89.5114 96.6174 90.1907C96.6174 90.5818 96.4426 90.9934 96.0931 91.4257C95.7642 91.8374 95.425 92.0432 95.0755 92.0432C94.8083 92.0432 94.4896 91.9197 94.1196 91.6727C93.9757 91.5698 93.8112 91.4874 93.6262 91.4257C93.4617 91.3434 93.287 91.3022 93.1019 91.3022C92.773 91.3022 92.4646 91.3537 92.1768 91.4566C91.889 91.5595 91.6937 91.683 91.5909 91.8271C91.262 92.3417 91.0153 92.8048 90.8508 93.2164C90.7069 93.6281 90.635 94.0707 90.635 94.5441C90.635 94.894 90.6247 95.1719 90.6041 95.3777L90.5733 97.1376L90.6041 98.3108C90.6041 99.1753 90.563 99.8649 90.4808 100.379Z" fill="#131313"/>
<path d="M72.613 94.6367C72.613 93.8957 72.7466 93.2062 73.0139 92.5681C73.2811 91.9094 73.6717 91.2302 74.1857 90.5303C74.6996 89.8305 75.4089 89.285 76.3134 88.894C77.218 88.4823 78.2048 88.2765 79.2738 88.2765C80.0961 88.2765 80.8876 88.4514 81.6483 88.8013C82.4295 89.1307 83.1285 89.5423 83.7452 90.0363C83.8274 90.1804 83.9713 90.448 84.1769 90.8391C84.3825 91.2096 84.5264 91.5492 84.6086 91.858C84.7114 92.1667 84.7628 92.4858 84.7628 92.8151C84.7628 94.1942 84.2592 95.1204 83.2518 95.5938C82.2445 96.0467 80.9699 96.2731 79.428 96.2731C77.8861 96.2731 76.6321 96.1702 75.6659 95.9643C75.707 96.3554 75.8098 96.7465 75.9742 97.1376C76.1387 97.5287 76.334 97.8271 76.5601 98.033C76.9713 98.424 77.3722 98.6813 77.7628 98.8048C78.174 98.9078 78.7187 98.9592 79.3972 98.9592C80.4251 98.9592 81.2268 98.7637 81.8025 98.3726C82.337 98.0227 82.7481 97.8477 83.036 97.8477C83.4266 97.8477 83.7246 97.9712 83.9302 98.2182C84.1358 98.4446 84.2386 98.7431 84.2386 99.1136C84.2386 99.8958 83.7349 100.534 82.7276 101.028C81.7408 101.522 80.6204 101.769 79.3663 101.769C78.3795 101.769 77.403 101.594 76.4368 101.244C75.4706 100.894 74.6996 100.4 74.124 99.762C73.7334 99.1033 73.3839 98.3005 73.0755 97.3537C72.7672 96.4069 72.613 95.5012 72.613 94.6367ZM79.3972 90.8082C78.9449 90.8082 78.472 90.8905 77.9787 91.0552C77.5058 91.1993 77.1358 91.4257 76.8685 91.7345C76.5396 92.0844 76.2929 92.4034 76.1284 92.6916C75.9845 92.9798 75.892 93.34 75.8509 93.7722C76.077 93.7722 76.2929 93.7825 76.4985 93.8031C76.704 93.8237 76.8994 93.8442 77.0844 93.8648C77.9889 93.9472 78.6673 93.9883 79.1196 93.9883C80.0242 93.9883 80.7129 93.8545 81.1857 93.587C81.6791 93.3194 81.9258 92.9592 81.9258 92.5063C81.9258 92.0741 81.6483 91.683 81.0932 91.3331C80.5587 90.9832 79.9933 90.8082 79.3972 90.8082Z" fill="#131313"/>
<path d="M71.0475 98.8048C71.397 99.0724 71.6334 99.3297 71.7568 99.5767C71.8801 99.8237 71.9418 100.132 71.9418 100.503C71.9418 100.812 71.7773 101.1 71.4484 101.367C71.14 101.614 70.8522 101.738 70.585 101.738C70.3588 101.738 70.0916 101.666 69.7832 101.522C69.4748 101.378 69.2384 101.213 69.0739 101.028C68.8478 100.843 68.4058 100.39 67.7479 99.6693C67.1106 98.9489 66.6378 98.3829 66.3294 97.9712C65.5893 97.045 65.2193 96.5818 65.2193 96.5818L64.14 95.2542L62.1664 96.8597L62.2898 100.225C62.2898 100.781 62.1459 101.172 61.858 101.398C61.5908 101.625 61.3235 101.738 61.0563 101.738C60.6657 101.738 60.3162 101.666 60.0078 101.522C59.72 101.378 59.5452 101.213 59.4836 101.028C59.2574 100.205 59.1444 99.1239 59.1444 97.786C59.1444 95.2748 59.1855 93.2679 59.2677 91.7653C59.3499 89.8923 59.3911 88.1221 59.3911 86.4548C59.3911 85.9403 59.3294 85.2301 59.206 84.3245C59.1855 84.1392 59.1546 83.8408 59.1135 83.4291C59.0724 83.0174 59.0518 82.6469 59.0518 82.3176C59.0518 81.8442 59.206 81.4737 59.5144 81.2061C59.8433 80.9385 60.2648 80.8047 60.7787 80.8047C61.1899 80.8047 61.5188 80.9385 61.7655 81.2061C62.0328 81.4531 62.1664 81.803 62.1664 82.2558C62.1664 82.9351 62.187 83.8305 62.2281 84.942C62.2692 86.0535 62.2898 86.8665 62.2898 87.3811C62.2898 88.0192 62.2692 88.8734 62.2281 89.9437C62.187 90.5201 62.1664 90.9523 62.1664 91.2405C62.1664 92.1461 62.1767 92.8974 62.1972 93.4943C62.9373 92.7328 63.9241 91.8477 65.1576 90.8391C66.4117 89.8099 67.3882 89.0895 68.0872 88.6778C68.8684 88.2044 69.3412 87.9677 69.5057 87.9677C69.9374 87.9677 70.3074 88.0603 70.6158 88.2456C70.9242 88.4308 71.0784 88.7087 71.0784 89.0792C71.0784 89.4497 71.027 89.7379 70.9242 89.9437C70.8214 90.129 70.6364 90.3245 70.3691 90.5303L66.3911 93.4326C67.2751 94.5235 68.1899 95.635 69.1356 96.7671C70.0813 97.8786 70.7186 98.5578 71.0475 98.8048Z" fill="#131313"/>
<path d="M56.7642 101.738C56.0652 101.738 55.5307 101.635 55.1606 101.429C54.7906 101.203 54.3897 100.791 53.958 100.194C53.4235 100.668 52.6217 101.048 51.5527 101.337C50.5042 101.625 49.5997 101.769 48.839 101.769C47.585 101.769 46.5673 101.429 45.7861 100.75C45.0255 100.05 44.6451 99.0312 44.6451 97.6933C44.6451 97.117 44.7993 96.5921 45.1077 96.1187C45.4366 95.6247 45.8581 95.1924 46.372 94.8219C46.9477 94.4309 47.6261 94.1221 48.4073 93.8957C49.209 93.6693 49.9389 93.5561 50.5967 93.5561C51.7069 93.5561 52.6937 93.659 53.5571 93.8648V93.8339C53.5571 92.7224 53.2796 91.9609 52.7245 91.5492C52.19 91.1169 51.3265 90.9008 50.1342 90.9008C49.3735 90.9008 48.7157 91.2404 48.1606 91.9197C47.955 92.1873 47.5233 92.3211 46.8654 92.3211C46.5365 92.3211 46.2898 92.1873 46.1253 91.9197C45.9814 91.6315 45.9095 91.3434 45.9095 91.0552C45.9095 90.4583 46.1562 89.9437 46.6496 89.5114C47.1635 89.0792 47.7803 88.7601 48.4998 88.5543C49.2193 88.3279 49.8875 88.2147 50.5042 88.2147C51.1004 88.2147 51.8097 88.3382 52.632 88.5852C53.4543 88.8322 54.1224 89.1615 54.6364 89.5732C55.2531 90.1084 55.726 90.7361 56.0549 91.4566C56.4044 92.1564 56.5791 92.9283 56.5791 93.7722C56.5791 94.0398 56.5586 94.4411 56.5175 94.9763C56.4763 95.5938 56.4558 96.0981 56.4558 96.4892C56.4558 96.6744 56.4352 96.9111 56.3941 97.1993C56.353 97.5698 56.3324 97.8786 56.3324 98.1256C56.3324 98.3932 56.4147 98.6504 56.5791 98.8974C56.7436 99.1444 56.9697 99.3503 57.2576 99.5149C57.5248 99.659 57.6996 99.8134 57.7818 99.9781C57.864 100.143 57.9051 100.328 57.9051 100.534C57.9051 100.74 57.7715 100.997 57.5043 101.306C57.2576 101.594 57.0109 101.738 56.7642 101.738ZM50.5967 95.8408C49.795 95.8408 49.0857 95.9952 48.469 96.3039C47.8522 96.6127 47.5438 97.1581 47.5438 97.9403C47.5438 98.3314 47.6775 98.6607 47.9447 98.9283C48.2325 99.1959 48.5409 99.3297 48.8698 99.3297C49.7538 99.3297 50.4939 99.2371 51.0901 99.0518C51.6863 98.8666 52.4058 98.5269 53.2487 98.0329C53.3515 97.7036 53.4132 97.2405 53.4337 96.6436C53.4337 96.4171 53.444 96.2422 53.4646 96.1187C52.3544 95.9334 51.3985 95.8408 50.5967 95.8408Z" fill="#131313"/>
<path d="M31.6453 95.069C31.6453 94.2868 31.7892 93.5046 32.077 92.7225C32.3648 91.9197 32.7452 91.189 33.218 90.5303C33.6908 89.8717 34.4412 89.3365 35.4691 88.9248C36.497 88.4926 37.4119 88.2765 38.2136 88.2765C39.0359 88.2765 39.8686 88.3897 40.7114 88.6161C41.5749 88.8425 42.1711 89.1924 42.5 89.6658C43.2606 90.7362 43.641 91.7859 43.641 92.8151C43.641 93.3708 43.5176 93.8442 43.2709 94.2353C43.0448 94.6264 42.7159 95.0484 42.2841 95.5012C41.9346 95.8717 41.3796 96.1187 40.6189 96.2422C39.8788 96.3657 39.1387 96.4275 38.3986 96.4275C37.9258 96.4275 37.3502 96.3863 36.6718 96.304C35.9933 96.201 35.3355 96.0775 34.6982 95.9335C34.7393 96.3451 34.8421 96.7465 35.0065 97.1376C35.171 97.5287 35.3663 97.8271 35.5925 98.033C36.0036 98.424 36.4251 98.671 36.8568 98.774C37.3091 98.8769 37.8847 98.9283 38.5837 98.9283C39.3238 98.9283 40.0125 98.8048 40.6498 98.5578C41.1637 98.3726 41.5852 98.28 41.9141 98.28C42.3047 98.28 42.6028 98.4035 42.8084 98.6505C43.0139 98.8769 43.1167 99.1753 43.1167 99.5458C43.1167 100.06 42.8186 100.482 42.2225 100.812C41.6263 101.141 40.9376 101.388 40.1564 101.553C39.3957 101.697 38.779 101.769 38.3061 101.769C37.3399 101.769 36.4045 101.594 35.4999 101.244C34.5954 100.894 33.845 100.4 33.2488 99.762C32.7554 99.1856 32.3648 98.4961 32.077 97.6933C31.7892 96.87 31.6453 95.9952 31.6453 95.069ZM38.3678 90.9008C37.9155 90.9008 37.4632 90.9935 37.011 91.1787C36.5587 91.3434 36.1886 91.5801 35.9008 91.8888C35.5308 92.2799 35.2738 92.599 35.1299 92.846C35.0065 93.0724 34.9243 93.3914 34.8832 93.8031C35.3972 93.9678 36.4662 94.0501 38.0903 94.0501C38.9743 94.0501 39.6527 93.9163 40.1255 93.6487C40.6189 93.3811 40.8656 93.0312 40.8656 92.599C40.8656 92.1667 40.5984 91.7756 40.0639 91.4257C39.5293 91.0758 38.964 90.9008 38.3678 90.9008Z" fill="#131313"/>
<path d="M17.8211 90.87C17.636 90.87 17.4613 90.8905 17.2968 90.9317C17.1324 90.9523 16.9679 90.9626 16.8034 90.9626C16.5773 90.9626 16.3614 90.8597 16.1559 90.6538C15.9708 90.448 15.8783 90.2628 15.8783 90.0981C15.8783 89.5629 16.1456 89.1512 16.6801 88.8631C17.2146 88.5543 17.7594 88.4 18.3145 88.4C18.7873 88.4 19.2704 88.5646 19.7638 88.894C20.2778 89.2027 20.6581 89.6041 20.9048 90.0981C21.4393 89.46 22.0972 88.9969 22.8784 88.7087C23.6596 88.4205 24.4716 88.2765 25.3145 88.2765C26.2602 88.2765 27.1339 88.5749 27.9357 89.1718C28.758 89.7688 29.4056 90.5303 29.8784 91.4566C30.3513 92.3622 30.5877 93.2679 30.5877 94.1736C30.5877 95.0587 30.4952 95.8511 30.3101 96.551C30.1251 97.2302 29.7962 97.9198 29.3233 98.6196C28.7888 99.3606 28.0693 99.9678 27.1647 100.441C26.2807 100.915 25.222 101.151 23.9885 101.151C23.6596 101.151 23.2587 101.069 22.7859 100.904C22.313 100.719 21.9224 100.524 21.614 100.318C21.4701 101.717 21.3982 102.932 21.3982 103.961C21.3982 104.578 21.429 105.165 21.4907 105.721C21.5318 106.38 21.5524 106.853 21.5524 107.141C21.5524 107.594 21.3982 107.923 21.0898 108.129C20.7814 108.356 20.4422 108.469 20.0722 108.469C19.3321 108.469 18.8387 108.263 18.592 107.851C18.3659 107.46 18.2528 106.894 18.2528 106.153C18.335 104.383 18.4378 102.747 18.5612 101.244C18.6845 99.3915 18.7462 96.5304 18.7462 92.6607C18.7462 92.2902 18.6742 91.8991 18.5303 91.4875C18.3864 91.0758 18.15 90.87 17.8211 90.87ZM21.7374 97.2611C21.8402 97.6522 22.128 97.9815 22.6008 98.2491C23.0942 98.4961 23.5362 98.6196 23.9268 98.6196C25.0987 98.6196 25.9724 98.3005 26.548 97.6625C26.9797 97.2096 27.2573 96.7671 27.3806 96.3348C27.5245 95.9026 27.5965 95.213 27.5965 94.2662C27.5965 93.5252 27.4526 92.9077 27.1647 92.4137C26.8769 91.8991 26.5274 91.5286 26.1163 91.3022C25.7051 91.0552 25.3145 90.9317 24.9445 90.9317C24.1016 90.9317 23.4129 91.189 22.8784 91.7036C22.3644 92.1976 22.0355 92.8768 21.8916 93.7413C21.7888 94.4206 21.7374 95.5938 21.7374 97.2611Z" fill="#131313"/>
<path d="M15.7697 96.026C15.7697 96.9935 15.5435 97.8271 15.0913 98.5269C14.6595 99.2062 13.94 99.834 12.9327 100.41C12.2542 100.822 11.4628 101.131 10.5582 101.337C9.65364 101.542 8.7388 101.645 7.81368 101.645C6.86801 101.645 5.69619 101.337 4.29824 100.719C3.29089 100.225 2.48912 99.6384 1.89294 98.9592C1.31731 98.2799 1.0295 97.5389 1.0295 96.7362C1.0295 96.1804 1.15284 95.779 1.39954 95.532C1.64624 95.2645 2.04712 95.1307 2.60219 95.1307C2.89001 95.1307 3.1881 95.2542 3.49647 95.5012C3.80484 95.7276 3.98987 95.954 4.05154 96.1804C4.33936 97.0243 4.84303 97.6727 5.56257 98.1255C6.2821 98.5578 7.17638 98.7739 8.2454 98.7739C9.47889 98.7739 10.5068 98.5475 11.3291 98.0947C12.172 97.6418 12.5934 97.0346 12.5934 96.273C12.5934 95.532 12.1412 94.8734 11.2366 94.297C10.3321 93.7207 9.40694 93.3193 8.46126 93.0929C7.10443 92.7224 5.90177 92.2799 4.85331 91.7653C3.76373 91.2301 2.95168 90.5715 2.41717 89.7893C1.88266 89.0071 1.6154 88.1838 1.6154 87.3193C1.6154 86.5165 1.89294 85.7035 2.44801 84.8802C3.00308 84.0363 3.66094 83.429 4.42159 83.0585C4.83275 82.8527 5.53173 82.6366 6.51852 82.4102C7.52587 82.1632 8.25568 82.0397 8.70796 82.0397C9.30415 82.0397 9.96201 82.1117 10.6815 82.2558C11.4011 82.3999 11.987 82.6057 12.4393 82.8733C13.3438 83.3879 14.012 83.851 14.4437 84.2627C14.8754 84.6743 15.0913 85.1889 15.0913 85.8064C15.0913 86.1769 14.9474 86.5063 14.6595 86.7944C14.3923 87.0826 13.9194 87.2267 13.241 87.2267C13.0766 87.2267 12.9121 87.1546 12.7476 87.0105C12.5832 86.8665 12.3776 86.6503 12.1309 86.3622C11.802 85.9299 11.4833 85.6418 11.1749 85.4977C10.8666 85.3948 10.4143 85.2815 9.8181 85.158C9.24247 85.0345 8.72852 84.9728 8.27624 84.9728C7.78284 84.9728 7.26889 85.0757 6.73438 85.2815C6.19987 85.4874 5.74759 85.7858 5.37754 86.1769C5.02805 86.5474 4.85331 86.9797 4.85331 87.4737C4.85331 87.8853 5.03833 88.2455 5.40838 88.5543C5.79898 88.8425 6.26154 89.0792 6.79605 89.2644C7.4128 89.5114 8.08094 89.7275 8.80047 89.9128C9.74615 90.201 10.5171 90.4685 11.1133 90.7155C11.73 90.942 12.3262 91.2301 12.9018 91.58C13.9092 92.177 14.639 92.7945 15.0913 93.4325C15.5435 94.05 15.7697 94.9145 15.7697 96.026Z" fill="#131313"/>
</g>
<defs>
<linearGradient id="paint0_linear_298_16609" x1="78.6042" y1="10.3125" x2="22.6146" y2="68.6458" gradientUnits="userSpaceOnUse">
<stop stop-color="#007AFF"/>
<stop offset="1" stop-color="#0058B7"/>
</linearGradient>
<clipPath id="clip0_298_16609">
<rect width="101" height="29" fill="white" transform="translate(0.5 80)"/>
</clipPath>
</defs>
</svg>
