<svg width="135" height="48" viewBox="0 0 135 48" fill="none" xmlns="http://www.w3.org/2000/svg">
<rect x="4.5" y="4" width="40" height="40" rx="12" fill="url(#paint0_linear_239_38578)"/>
<path fill-rule="evenodd" clip-rule="evenodd" d="M37.7875 29.3044C38.3823 28.265 38.7222 27.0611 38.7222 25.7777C38.7222 21.8504 35.5385 18.6666 31.6111 18.6666C27.6838 18.6666 24.5 21.8504 24.5 25.7777C24.5 29.7051 27.6838 32.8888 31.6111 32.8888C33.4061 32.8888 35.0457 32.2238 36.2971 31.1267L38.4827 31.6514L37.7875 29.3044Z" fill="white"/>
<path fill-rule="evenodd" clip-rule="evenodd" d="M26.8227 31.0351C28.9245 29.4093 30.2778 26.8627 30.2778 23.9999C30.2778 22.2364 29.7642 20.5928 28.8785 19.2106C26.3074 20.2816 24.5 22.8186 24.5 25.7777C24.5 27.8607 25.3956 29.7345 26.8227 31.0351Z" fill="#E6F2FF"/>
<path fill-rule="evenodd" clip-rule="evenodd" d="M19.1667 32.8889C24.0759 32.8889 28.0555 28.9092 28.0555 24C28.0555 19.0908 24.0759 15.1111 19.1667 15.1111C14.2575 15.1111 10.2778 19.0908 10.2778 24C10.2778 25.5859 10.6931 27.0749 11.421 28.364L10.4474 31.6515L13.5657 30.9026C15.0944 32.1446 17.0436 32.8889 19.1667 32.8889Z" fill="#F8F8F8"/>
<path d="M133.822 31.5085C133.822 31.9418 133.648 32.3492 133.302 32.7305C132.955 33.0945 132.574 33.2765 132.158 33.2765C131.672 33.2765 131.23 33.1465 130.832 32.8865C130.433 32.6092 130.234 32.2625 130.234 31.8465C130.234 31.1878 130.355 30.7025 130.598 30.3905C130.858 30.0785 131.239 29.9225 131.742 29.9225C132.331 29.9225 132.825 30.0698 133.224 30.3645C133.622 30.6418 133.822 31.0232 133.822 31.5085Z" fill="white"/>
<path d="M124.788 31.8985C124.753 32.1932 124.632 32.4532 124.424 32.6785C124.216 32.9039 123.947 33.0165 123.618 33.0165C123.098 33.0165 122.716 32.9212 122.474 32.7305C122.231 32.5225 122.11 32.1499 122.11 31.6125C122.11 30.8845 122.153 30.0872 122.24 29.2205C122.309 28.2152 122.344 27.4439 122.344 26.9065C122.344 26.6292 122.326 26.2825 122.292 25.8665C122.257 25.4852 122.24 25.1992 122.24 25.0085C122.188 24.7139 122.066 24.4799 121.876 24.3065C121.702 24.1332 121.425 23.9859 121.044 23.8645C120.888 23.7952 120.758 23.6825 120.654 23.5265C120.55 23.3532 120.498 23.1972 120.498 23.0585C120.498 22.6599 120.654 22.3565 120.966 22.1485C121.278 21.9405 121.659 21.8365 122.11 21.8365C122.612 21.8365 123.046 22.0099 123.41 22.3565C123.774 22.7032 124.051 23.1365 124.242 23.6565C124.64 23.0845 125.126 22.6252 125.698 22.2785C126.287 21.9319 126.859 21.7585 127.414 21.7585C128.124 21.7585 128.722 21.8799 129.208 22.1225C129.71 22.3479 129.962 22.7465 129.962 23.3185C129.962 23.6479 129.814 23.9945 129.52 24.3585C129.242 24.7052 128.956 24.8785 128.662 24.8785C128.436 24.8785 128.168 24.7745 127.856 24.5665C127.734 24.4799 127.596 24.4105 127.44 24.3585C127.301 24.2892 127.154 24.2545 126.998 24.2545C126.72 24.2545 126.46 24.2979 126.218 24.3845C125.975 24.4712 125.81 24.5752 125.724 24.6965C125.446 25.1299 125.238 25.5199 125.1 25.8665C124.978 26.2132 124.918 26.5859 124.918 26.9845C124.918 27.2792 124.909 27.5132 124.892 27.6865L124.866 29.1685L124.892 30.1565C124.892 30.8845 124.857 31.4652 124.788 31.8985Z" fill="white"/>
<path d="M109.723 27.0625C109.723 26.4385 109.835 25.8579 110.061 25.3205C110.286 24.7659 110.615 24.1939 111.049 23.6045C111.482 23.0152 112.08 22.5559 112.843 22.2265C113.605 21.8799 114.437 21.7065 115.339 21.7065C116.032 21.7065 116.699 21.8539 117.341 22.1485C117.999 22.4259 118.589 22.7725 119.109 23.1885C119.178 23.3099 119.299 23.5352 119.473 23.8645C119.646 24.1765 119.767 24.4625 119.837 24.7225C119.923 24.9825 119.967 25.2512 119.967 25.5285C119.967 26.6899 119.542 27.4699 118.693 27.8685C117.843 28.2499 116.769 28.4405 115.469 28.4405C114.169 28.4405 113.111 28.3539 112.297 28.1805C112.331 28.5099 112.418 28.8392 112.557 29.1685C112.695 29.4979 112.86 29.7492 113.051 29.9225C113.397 30.2519 113.735 30.4685 114.065 30.5725C114.411 30.6592 114.871 30.7025 115.443 30.7025C116.309 30.7025 116.985 30.5379 117.471 30.2085C117.921 29.9139 118.268 29.7665 118.511 29.7665C118.84 29.7665 119.091 29.8705 119.265 30.0785C119.438 30.2692 119.525 30.5205 119.525 30.8325C119.525 31.4912 119.1 32.0285 118.251 32.4445C117.419 32.8605 116.474 33.0685 115.417 33.0685C114.585 33.0685 113.761 32.9212 112.947 32.6265C112.132 32.3319 111.482 31.9159 110.997 31.3785C110.667 30.8239 110.373 30.1479 110.113 29.3505C109.853 28.5532 109.723 27.7905 109.723 27.0625ZM115.443 23.8385C115.061 23.8385 114.663 23.9079 114.247 24.0465C113.848 24.1679 113.536 24.3585 113.311 24.6185C113.033 24.9132 112.825 25.1819 112.687 25.4245C112.565 25.6672 112.487 25.9705 112.453 26.3345C112.643 26.3345 112.825 26.3432 112.999 26.3605C113.172 26.3779 113.337 26.3952 113.493 26.4125C114.255 26.4819 114.827 26.5165 115.209 26.5165C115.971 26.5165 116.552 26.4039 116.951 26.1785C117.367 25.9532 117.575 25.6499 117.575 25.2685C117.575 24.9045 117.341 24.5752 116.873 24.2805C116.422 23.9859 115.945 23.8385 115.443 23.8385Z" fill="white"/>
<path d="M108.403 30.5726C108.697 30.7979 108.897 31.0146 109.001 31.2226C109.105 31.4306 109.157 31.6905 109.157 32.0026C109.157 32.2626 109.018 32.5052 108.741 32.7306C108.481 32.9386 108.238 33.0426 108.013 33.0426C107.822 33.0426 107.597 32.9819 107.337 32.8606C107.077 32.7392 106.877 32.6006 106.739 32.4446C106.548 32.2886 106.175 31.9072 105.621 31.3006C105.083 30.6939 104.685 30.2172 104.425 29.8706C103.801 29.0906 103.489 28.7006 103.489 28.7006L102.579 27.5826L100.915 28.9346L101.019 31.7686C101.019 32.2366 100.897 32.5659 100.655 32.7566C100.429 32.9472 100.204 33.0426 99.9788 33.0426C99.6495 33.0426 99.3548 32.9819 99.0948 32.8606C98.8522 32.7392 98.7048 32.6006 98.6528 32.4446C98.4622 31.7512 98.3668 30.8412 98.3668 29.7146C98.3668 27.5999 98.4015 25.9099 98.4708 24.6446C98.5402 23.0672 98.5748 21.5766 98.5748 20.1726C98.5748 19.7392 98.5228 19.1412 98.4188 18.3786C98.4015 18.2226 98.3755 17.9712 98.3408 17.6246C98.3062 17.2779 98.2888 16.9659 98.2888 16.6886C98.2888 16.2899 98.4188 15.9779 98.6788 15.7526C98.9562 15.5272 99.3115 15.4146 99.7448 15.4146C100.091 15.4146 100.369 15.5272 100.577 15.7526C100.802 15.9606 100.915 16.2552 100.915 16.6366C100.915 17.2086 100.932 17.9626 100.967 18.8986C101.001 19.8346 101.019 20.5192 101.019 20.9526C101.019 21.4899 101.001 22.2092 100.967 23.1106C100.932 23.5959 100.915 23.9599 100.915 24.2026C100.915 24.9652 100.923 25.5979 100.941 26.1005C101.565 25.4592 102.397 24.7139 103.437 23.8646C104.494 22.9979 105.317 22.3912 105.907 22.0446C106.565 21.6459 106.964 21.4466 107.103 21.4466C107.467 21.4466 107.779 21.5246 108.039 21.6806C108.299 21.8366 108.429 22.0706 108.429 22.3826C108.429 22.6946 108.385 22.9372 108.299 23.1106C108.212 23.2666 108.056 23.4312 107.831 23.6046L104.477 26.0485C105.222 26.9672 105.993 27.9032 106.791 28.8566C107.588 29.7926 108.125 30.3646 108.403 30.5726Z" fill="white"/>
<path d="M96.36 33.0425C95.7706 33.0425 95.32 32.9559 95.008 32.7825C94.696 32.5919 94.358 32.2452 93.994 31.7425C93.5433 32.1412 92.8673 32.4619 91.966 32.7045C91.082 32.9472 90.3193 33.0685 89.678 33.0685C88.6206 33.0685 87.7626 32.7825 87.104 32.2105C86.4626 31.6212 86.142 30.7632 86.142 29.6365C86.142 29.1512 86.272 28.7092 86.532 28.3105C86.8093 27.8945 87.1646 27.5305 87.598 27.2185C88.0833 26.8892 88.6553 26.6292 89.314 26.4385C89.99 26.2479 90.6053 26.1525 91.16 26.1525C92.096 26.1525 92.928 26.2392 93.656 26.4125V26.3865C93.656 25.4505 93.422 24.8092 92.954 24.4625C92.5033 24.0985 91.7753 23.9165 90.77 23.9165C90.1286 23.9165 89.574 24.2025 89.106 24.7745C88.9326 24.9999 88.5686 25.1125 88.014 25.1125C87.7366 25.1125 87.5286 24.9999 87.39 24.7745C87.2686 24.5319 87.208 24.2892 87.208 24.0465C87.208 23.5439 87.416 23.1105 87.832 22.7465C88.2653 22.3825 88.7853 22.1139 89.392 21.9405C89.9986 21.7499 90.562 21.6545 91.082 21.6545C91.5846 21.6545 92.1826 21.7585 92.876 21.9665C93.5693 22.1745 94.1326 22.4519 94.566 22.7985C95.086 23.2492 95.4846 23.7779 95.762 24.3845C96.0566 24.9739 96.204 25.6239 96.204 26.3345C96.204 26.5599 96.1866 26.8979 96.152 27.3485C96.1173 27.8685 96.1 28.2932 96.1 28.6225C96.1 28.7785 96.0826 28.9779 96.048 29.2205C96.0133 29.5325 95.996 29.7925 95.996 30.0005C95.996 30.2259 96.0653 30.4425 96.204 30.6505C96.3426 30.8585 96.5333 31.0319 96.776 31.1705C97.0013 31.2919 97.1486 31.4219 97.218 31.5605C97.2873 31.6992 97.322 31.8552 97.322 32.0285C97.322 32.2019 97.2093 32.4185 96.984 32.6785C96.776 32.9212 96.568 33.0425 96.36 33.0425ZM91.16 28.0765C90.484 28.0765 89.886 28.2065 89.366 28.4665C88.846 28.7265 88.586 29.1859 88.586 29.8445C88.586 30.1739 88.6986 30.4512 88.924 30.6765C89.1666 30.9019 89.4266 31.0145 89.704 31.0145C90.4493 31.0145 91.0733 30.9365 91.576 30.7805C92.0786 30.6245 92.6853 30.3385 93.396 29.9225C93.4826 29.6452 93.5346 29.2552 93.552 28.7525C93.552 28.5619 93.5606 28.4145 93.578 28.3105C92.642 28.1545 91.836 28.0765 91.16 28.0765Z" fill="white"/>
<path d="M75.1813 27.4265C75.1813 26.7679 75.3027 26.1092 75.5453 25.4505C75.788 24.7745 76.1087 24.1592 76.5073 23.6045C76.906 23.0499 77.5387 22.5992 78.4053 22.2525C79.272 21.8885 80.0433 21.7065 80.7193 21.7065C81.4127 21.7065 82.1147 21.8019 82.8253 21.9925C83.5533 22.1832 84.056 22.4779 84.3333 22.8765C84.9747 23.7779 85.2953 24.6619 85.2953 25.5285C85.2953 25.9965 85.1913 26.3952 84.9833 26.7245C84.7927 27.0539 84.5153 27.4092 84.1513 27.7905C83.8567 28.1025 83.3887 28.3105 82.7473 28.4145C82.1233 28.5185 81.4993 28.5705 80.8753 28.5705C80.4767 28.5705 79.9913 28.5359 79.4193 28.4665C78.8473 28.3799 78.2927 28.2759 77.7553 28.1545C77.79 28.5012 77.8767 28.8392 78.0153 29.1685C78.154 29.4979 78.3187 29.7492 78.5093 29.9225C78.856 30.2519 79.2113 30.4599 79.5753 30.5465C79.9567 30.6332 80.442 30.6765 81.0313 30.6765C81.6553 30.6765 82.236 30.5725 82.7733 30.3645C83.2067 30.2085 83.562 30.1305 83.8393 30.1305C84.1687 30.1305 84.42 30.2345 84.5933 30.4425C84.7667 30.6332 84.8533 30.8845 84.8533 31.1965C84.8533 31.6299 84.602 31.9852 84.0993 32.2625C83.5967 32.5399 83.016 32.7479 82.3573 32.8865C81.716 33.0079 81.196 33.0685 80.7973 33.0685C79.9827 33.0685 79.194 32.9212 78.4313 32.6265C77.6687 32.3319 77.036 31.9159 76.5333 31.3785C76.1173 30.8932 75.788 30.3125 75.5453 29.6365C75.3027 28.9432 75.1813 28.2065 75.1813 27.4265ZM80.8493 23.9165C80.468 23.9165 80.0867 23.9945 79.7053 24.1505C79.324 24.2892 79.012 24.4885 78.7693 24.7485C78.4573 25.0779 78.2407 25.3465 78.1193 25.5545C78.0153 25.7452 77.946 26.0139 77.9113 26.3605C78.3447 26.4992 79.246 26.5685 80.6153 26.5685C81.3607 26.5685 81.9327 26.4559 82.3313 26.2305C82.7473 26.0052 82.9553 25.7105 82.9553 25.3465C82.9553 24.9825 82.73 24.6532 82.2793 24.3585C81.8287 24.0639 81.352 23.9165 80.8493 23.9165Z" fill="white"/>
<path d="M63.5256 23.8905C63.3696 23.8905 63.2222 23.9079 63.0836 23.9425C62.9449 23.9599 62.8062 23.9685 62.6676 23.9685C62.4769 23.9685 62.2949 23.8819 62.1216 23.7085C61.9656 23.5352 61.8876 23.3792 61.8876 23.2405C61.8876 22.7899 62.1129 22.4432 62.5636 22.2005C63.0142 21.9405 63.4736 21.8105 63.9416 21.8105C64.3402 21.8105 64.7476 21.9492 65.1636 22.2265C65.5969 22.4865 65.9176 22.8245 66.1256 23.2405C66.5762 22.7032 67.1309 22.3132 67.7896 22.0705C68.4482 21.8279 69.1329 21.7065 69.8436 21.7065C70.6409 21.7065 71.3776 21.9579 72.0536 22.4605C72.7469 22.9632 73.2929 23.6045 73.6916 24.3845C74.0902 25.1472 74.2896 25.9099 74.2896 26.6725C74.2896 27.4179 74.2116 28.0852 74.0556 28.6745C73.8996 29.2465 73.6222 29.8272 73.2236 30.4165C72.7729 31.0405 72.1662 31.5519 71.4036 31.9505C70.6582 32.3492 69.7656 32.5485 68.7256 32.5485C68.4482 32.5485 68.1102 32.4792 67.7116 32.3405C67.3129 32.1845 66.9836 32.0199 66.7236 31.8465C66.6022 33.0252 66.5416 34.0479 66.5416 34.9145C66.5416 35.4345 66.5676 35.9285 66.6196 36.3965C66.6542 36.9512 66.6716 37.3499 66.6716 37.5925C66.6716 37.9739 66.5416 38.2512 66.2816 38.4245C66.0216 38.6152 65.7356 38.7105 65.4236 38.7105C64.7996 38.7105 64.3836 38.5372 64.1756 38.1905C63.9849 37.8612 63.8896 37.3845 63.8896 36.7605C63.9589 35.2699 64.0456 33.8919 64.1496 32.6265C64.2536 31.0665 64.3056 28.6572 64.3056 25.3985C64.3056 25.0865 64.2449 24.7572 64.1236 24.4105C64.0022 24.0639 63.8029 23.8905 63.5256 23.8905ZM66.8276 29.2725C66.9142 29.6019 67.1569 29.8792 67.5556 30.1045C67.9716 30.3125 68.3442 30.4165 68.6736 30.4165C69.6616 30.4165 70.3982 30.1479 70.8836 29.6105C71.2476 29.2292 71.4816 28.8565 71.5856 28.4925C71.7069 28.1285 71.7676 27.5479 71.7676 26.7505C71.7676 26.1265 71.6462 25.6065 71.4036 25.1905C71.1609 24.7572 70.8662 24.4452 70.5196 24.2545C70.1729 24.0465 69.8436 23.9425 69.5316 23.9425C68.8209 23.9425 68.2402 24.1592 67.7896 24.5925C67.3562 25.0085 67.0789 25.5805 66.9576 26.3085C66.8709 26.8805 66.8276 27.8685 66.8276 29.2725Z" fill="white"/>
<path d="M61.796 28.2325C61.796 29.0471 61.6054 29.7491 61.224 30.3385C60.86 30.9105 60.2534 31.4391 59.404 31.9245C58.832 32.2711 58.1647 32.5311 57.402 32.7045C56.6394 32.8778 55.868 32.9645 55.088 32.9645C54.2907 32.9645 53.3027 32.7045 52.124 32.1845C51.2747 31.7685 50.5987 31.2745 50.096 30.7025C49.6107 30.1305 49.368 29.5065 49.368 28.8305C49.368 28.3625 49.472 28.0245 49.68 27.8165C49.888 27.5911 50.226 27.4785 50.694 27.4785C50.9367 27.4785 51.188 27.5825 51.448 27.7905C51.708 27.9811 51.864 28.1718 51.916 28.3625C52.1587 29.0731 52.5834 29.6191 53.19 30.0005C53.7967 30.3645 54.5507 30.5465 55.452 30.5465C56.492 30.5465 57.3587 30.3558 58.052 29.9745C58.7627 29.5931 59.118 29.0818 59.118 28.4405C59.118 27.8165 58.7367 27.2618 57.974 26.7765C57.2114 26.2911 56.4314 25.9531 55.634 25.7625C54.49 25.4505 53.476 25.0778 52.592 24.6445C51.6734 24.1938 50.9887 23.6391 50.538 22.9805C50.0874 22.3218 49.862 21.6285 49.862 20.9005C49.862 20.2245 50.096 19.5398 50.564 18.8465C51.032 18.1358 51.5867 17.6245 52.228 17.3125C52.5747 17.1391 53.164 16.9571 53.996 16.7665C54.8454 16.5585 55.4607 16.4545 55.842 16.4545C56.3447 16.4545 56.8994 16.5151 57.506 16.6365C58.1127 16.7578 58.6067 16.9311 58.988 17.1565C59.7507 17.5898 60.314 17.9798 60.678 18.3265C61.042 18.6731 61.224 19.1065 61.224 19.6265C61.224 19.9385 61.1027 20.2158 60.86 20.4585C60.6347 20.7011 60.236 20.8225 59.664 20.8225C59.5254 20.8225 59.3867 20.7618 59.248 20.6405C59.1094 20.5191 58.936 20.3371 58.728 20.0945C58.4507 19.7305 58.182 19.4878 57.922 19.3665C57.662 19.2798 57.2807 19.1845 56.778 19.0805C56.2927 18.9765 55.8594 18.9245 55.478 18.9245C55.062 18.9245 54.6287 19.0111 54.178 19.1845C53.7274 19.3578 53.346 19.6091 53.034 19.9385C52.7394 20.2505 52.592 20.6145 52.592 21.0305C52.592 21.3771 52.748 21.6805 53.06 21.9405C53.3894 22.1831 53.7794 22.3825 54.23 22.5385C54.75 22.7465 55.3134 22.9285 55.92 23.0845C56.7174 23.3271 57.3674 23.5525 57.87 23.7605C58.39 23.9511 58.8927 24.1938 59.378 24.4885C60.2274 24.9911 60.8427 25.5111 61.224 26.0485C61.6054 26.5685 61.796 27.2965 61.796 28.2325Z" fill="white"/>
<defs>
<linearGradient id="paint0_linear_239_38578" x1="41.0625" y1="6.1875" x2="7.46875" y2="41.1875" gradientUnits="userSpaceOnUse">
<stop stop-color="#007AFF"/>
<stop offset="1" stop-color="#0058B7"/>
</linearGradient>
</defs>
</svg>
