<svg width="139" height="48" viewBox="0 0 139 48" fill="none" xmlns="http://www.w3.org/2000/svg">
<rect x="4" y="4" width="40" height="40" rx="12" fill="url(#paint0_linear_126_6357)"/>
<path fill-rule="evenodd" clip-rule="evenodd" d="M37.2875 29.3045C37.8823 28.2651 38.2222 27.0612 38.2222 25.7779C38.2222 21.8505 35.0385 18.6667 31.1111 18.6667C27.1838 18.6667 24 21.8505 24 25.7779C24 29.7052 27.1838 32.889 31.1111 32.889C32.9061 32.889 34.5457 32.2239 35.7971 31.1268L37.9827 31.6515L37.2875 29.3045Z" fill="white"/>
<path fill-rule="evenodd" clip-rule="evenodd" d="M26.3227 31.0352C28.4245 29.4094 29.7778 26.8628 29.7778 24C29.7778 22.2365 29.2642 20.5929 28.3785 19.2107C25.8074 20.2818 24 22.8187 24 25.7778C24 27.8608 24.8956 29.7346 26.3227 31.0352Z" fill="#E6F2FF"/>
<path fill-rule="evenodd" clip-rule="evenodd" d="M18.6667 32.8889C23.5759 32.8889 27.5555 28.9092 27.5555 24C27.5555 19.0908 23.5759 15.1111 18.6667 15.1111C13.7575 15.1111 9.77777 19.0908 9.77777 24C9.77777 25.5859 10.1931 27.0749 10.921 28.364L9.94741 31.6515L13.0657 30.9026C14.5944 32.1446 16.5436 32.8889 18.6667 32.8889Z" fill="#F8F8F8"/>
<path d="M69.9375 35H65.9219V25.2656H54.9531V35H50.9219V12.4531H54.9531V21.7812H65.9219V12.4531H69.9375V35ZM82.0812 20.6406C80.925 20.6406 79.9719 21.0208 79.2219 21.7812C78.4719 22.5417 78.0552 23.5469 77.9719 24.7969H86.0187C85.9771 23.526 85.6021 22.5156 84.8937 21.7656C84.1854 21.0156 83.2479 20.6406 82.0812 20.6406ZM86.05 30.2969H89.7219C89.3573 31.8594 88.4979 33.0938 87.1437 34C85.8 34.8958 84.1281 35.3438 82.1281 35.3438C79.6177 35.3438 77.6437 34.5625 76.2062 33C74.7792 31.4271 74.0656 29.2656 74.0656 26.5156C74.0656 23.7656 74.7844 21.5885 76.2219 19.9844C77.6594 18.3698 79.6177 17.5625 82.0969 17.5625C84.5344 17.5625 86.4406 18.3281 87.8156 19.8594C89.201 21.3802 89.8937 23.4896 89.8937 26.1875V27.4375H77.9562V27.6406C78.0083 29.0677 78.4146 30.1979 79.175 31.0312C79.9458 31.8542 80.9667 32.2656 82.2375 32.2656C84.1958 32.2656 85.4667 31.6094 86.05 30.2969ZM93.7406 35V11.2969H97.6156V35H93.7406ZM102.478 35V11.2969H106.353V35H102.478ZM118.434 35.3438C115.872 35.3438 113.861 34.5573 112.403 32.9844C110.945 31.401 110.216 29.224 110.216 26.4531C110.216 23.7031 110.95 21.5365 112.419 19.9531C113.888 18.3594 115.893 17.5625 118.434 17.5625C120.986 17.5625 122.992 18.3542 124.45 19.9375C125.919 21.5208 126.653 23.6927 126.653 26.4531C126.653 29.224 125.919 31.401 124.45 32.9844C122.992 34.5573 120.986 35.3438 118.434 35.3438ZM115.294 30.625C116.033 31.6042 117.08 32.0938 118.434 32.0938C119.789 32.0938 120.83 31.6042 121.559 30.625C122.299 29.6354 122.669 28.2448 122.669 26.4531C122.669 24.6719 122.299 23.2865 121.559 22.2969C120.82 21.3073 119.778 20.8125 118.434 20.8125C117.08 20.8125 116.033 21.3073 115.294 22.2969C114.554 23.2865 114.184 24.6719 114.184 26.4531C114.184 28.2448 114.554 29.6354 115.294 30.625ZM131.25 12.4375H135.578L135.219 27.5469H131.609L131.25 12.4375ZM135.312 34.7344C134.844 35.1823 134.214 35.4062 133.422 35.4062C132.63 35.4062 132 35.1823 131.531 34.7344C131.062 34.276 130.828 33.6719 130.828 32.9219C130.828 32.1615 131.062 31.5573 131.531 31.1094C132 30.651 132.63 30.4219 133.422 30.4219C134.214 30.4219 134.844 30.651 135.312 31.1094C135.781 31.5573 136.016 32.1615 136.016 32.9219C136.016 33.6719 135.781 34.276 135.312 34.7344Z" fill="white"/>
<defs>
<linearGradient id="paint0_linear_126_6357" x1="40.5625" y1="6.1875" x2="6.96875" y2="41.1875" gradientUnits="userSpaceOnUse">
<stop stop-color="#007AFF"/>
<stop offset="1" stop-color="#0058B7"/>
</linearGradient>
</defs>
</svg>
