<svg width="32" height="32" viewBox="0 0 32 32" fill="none" xmlns="http://www.w3.org/2000/svg">
<path fill-rule="evenodd" clip-rule="evenodd" d="M7.2215 5.22154C7.4278 5.01525 7.70761 4.89936 7.99936 4.89938L17.5 4.89999C17.5 4.89999 17.5 4.89999 17.5 4.89999C18.9852 4.90001 20.4096 5.49001 21.4598 6.5402C22.51 7.5904 23.1 9.01478 23.1 10.5C23.1 11.9716 22.5208 13.3834 21.4887 14.4307C22.1621 14.7316 22.7817 15.155 23.3134 15.6866C24.4573 16.8306 25.1 18.3822 25.1 20C25.1 21.6178 24.4573 23.1694 23.3134 24.3133C22.1694 25.4573 20.6178 26.1 19 26.1L7.99923 26.0994C7.39174 26.0993 6.89929 25.6069 6.89929 24.9994V5.99938C6.89929 5.70763 7.01519 5.42783 7.2215 5.22154ZM17.5 13.9C18.4018 13.9 19.2666 13.5418 19.9042 12.9042C20.5418 12.2665 20.9 11.4017 20.9 10.5C20.9 9.59826 20.5418 8.73345 19.9042 8.09583C19.2666 7.45821 18.4018 7.09999 17.5 7.09999L9.09929 7.09945V13.9H17.5ZM9.09929 16.1V23.8994L19 23.9C19 23.9 19 23.9 19 23.9C20.0343 23.9 21.0264 23.4891 21.7577 22.7577C22.4891 22.0263 22.9 21.0343 22.9 20C22.9 18.9656 22.4891 17.9737 21.7577 17.2423C21.0263 16.5109 20.0344 16.1 19 16.1H9.09929Z" fill="#007AFF"/>
</svg>
