<svg width="33" height="32" viewBox="0 0 33 32" fill="none" xmlns="http://www.w3.org/2000/svg">
<path fill-rule="evenodd" clip-rule="evenodd" d="M9.44766 20.2936C11.3543 19.6544 13.8801 19.4616 16.4797 19.4616C19.095 19.4616 21.6216 19.6619 23.5256 20.3094C24.4829 20.635 25.3558 21.0974 25.998 21.7706C26.6633 22.4679 27.039 23.3496 27.039 24.3917C27.039 25.4361 26.6599 26.3173 25.9908 27.012C25.3454 27.682 24.4694 28.14 23.5112 28.4614C21.6049 29.1008 19.0794 29.294 16.4797 29.294C13.8645 29.294 11.3376 29.094 9.4332 28.4466C8.47578 28.1211 7.6027 27.6588 6.9603 26.9856C6.29485 26.2882 5.91904 25.4063 5.91904 24.3638C5.91904 23.3192 6.29824 22.4377 6.96753 21.743C7.61309 21.0729 8.48929 20.6149 9.44766 20.2936ZM8.40789 23.1306C8.09031 23.4602 7.91904 23.8472 7.91904 24.3638C7.91904 24.8826 8.09021 25.2726 8.40725 25.6049C8.74736 25.9613 9.2923 26.2863 10.0769 26.5531C11.6567 27.0901 13.9101 27.294 16.4797 27.294C19.0368 27.294 21.291 27.0966 22.8752 26.5652C23.6622 26.3013 24.2091 25.9788 24.5503 25.6245C24.8679 25.2949 25.039 24.9081 25.039 24.3917C25.039 23.8733 24.868 23.4834 24.551 23.1512C24.2109 22.7948 23.6661 22.4697 22.8816 22.2029C21.3022 21.6658 19.0491 21.4616 16.4797 21.4616C13.9224 21.4616 11.6679 21.6586 10.0834 22.1899C9.29624 22.4538 8.74919 22.7763 8.40789 23.1306Z" fill="#131313"/>
<path fill-rule="evenodd" clip-rule="evenodd" d="M9.35142 9.87792C9.35233 5.94202 12.5441 2.75263 16.4797 2.75263C20.4161 2.75263 23.6067 5.9432 23.6067 9.87962C23.6067 13.8158 20.4164 17.0079 16.4797 17.0079H16.4365L16.4331 17.0079C12.5097 16.9946 9.33903 13.8019 9.35142 9.87792ZM16.4797 4.75263C13.6476 4.75263 11.3514 7.04804 11.3514 9.87962V9.88301H11.3514C11.3419 12.7031 13.6201 14.9974 16.4383 15.0079H16.4797C19.3112 15.0079 21.6067 12.7117 21.6067 9.87962C21.6067 7.04777 19.3115 4.75263 16.4797 4.75263Z" fill="#131313"/>
</svg>
