<svg width="33" height="32" viewBox="0 0 33 32" fill="none" xmlns="http://www.w3.org/2000/svg">
<path fill-rule="evenodd" clip-rule="evenodd" d="M7.79218 5.29226C7.97973 5.10472 8.2341 4.99937 8.49933 4.99939L18 5C18 5 18 5 18 5C19.4587 5.00002 20.8577 5.57948 21.8891 6.61091C22.9205 7.64236 23.5 9.04131 23.5 10.5C23.5 11.9587 22.9205 13.3576 21.8891 14.3891C21.8639 14.4142 21.8386 14.4391 21.813 14.4637C22.5275 14.7623 23.1844 15.1991 23.7426 15.7574C24.8679 16.8826 25.5 18.4087 25.5 20C25.5 21.5913 24.8679 23.1174 23.7426 24.2426C22.6174 25.3679 21.0913 26 19.5 26L8.49921 25.9994C7.94695 25.9994 7.49927 25.5517 7.49927 24.9994V5.99939C7.49927 5.73416 7.60463 5.4798 7.79218 5.29226ZM18 14C18.9283 14 19.8185 13.6313 20.4749 12.9749C21.1313 12.3185 21.5 11.4283 21.5 10.5C21.5 9.57174 21.1313 8.6815 20.4749 8.02513C19.8185 7.36875 18.9283 7 18 7L9.49927 6.99945V14H18ZM9.49927 16V23.9994L19.5 24C19.5 24 19.5 24 19.5 24C20.5608 24 21.5783 23.5786 22.3284 22.8284C23.0786 22.0783 23.5 21.0609 23.5 20C23.5 18.9391 23.0786 17.9217 22.3284 17.1716C21.5783 16.4214 20.5609 16 19.5 16H9.49927Z" fill="#131313"/>
</svg>
